<?xml version="1.0" encoding="UTF-8"?>
<svg width="24px" height="24px" viewBox="0 0 24 24" version="1.1" xmlns="http://www.w3.org/2000/svg" xmlns:xlink="http://www.w3.org/1999/xlink">
    <title>行情备份 2</title>
    <g id="BRC20" stroke="none" stroke-width="1" fill="none" fill-rule="evenodd">
        <g id="BRC20-ordi价格" transform="translate(-20.000000, -165.000000)" fill-rule="nonzero">
            <g id="行情备份-2" transform="translate(20.000000, 165.000000)">
                <circle id="椭圆形" fill="#F7931A" cx="12" cy="12" r="12"></circle>
                <path d="M15.306469,15.1920445 C15.2087978,15.5284935 14.9824348,15.8112544 14.6779131,15.9772041 C14.3743882,16.1450837 14.0172641,16.1826859 13.6862363,16.0816194 L10.3477293,15.0727127 L11.0915166,12.5389577 L14.4297864,13.5479847 L14.429905,13.5479847 C15.1182105,13.7559733 15.5115618,14.4934965 15.306469,15.1920445 M16.4324638,9.99954884 C16.5977229,10.307644 16.6347305,10.6699945 16.5352473,11.0059294 C16.3301545,11.7042368 15.6029644,12.1031321 14.9150145,11.8955044 L14.914896,11.8955044 L11.5765076,10.8865976 L12.3200577,8.35284264 L15.6585647,9.36174941 C15.9901254,9.46093779 16.2687981,9.69060249 16.4324638,9.99954884 M17.9269143,9.17914295 C17.5452995,8.46351324 16.911883,7.94143678 16.1435557,7.70926912 L15.7018357,7.57586295 L16.3201963,5.46903176 L14.7336319,4.9895394 L14.1152713,7.09637059 L12.7607108,6.6870097 L13.3791899,4.58017853 L12.9991163,4.46529763 L11.4593795,4 L10.8633064,6.03080529 L8.98688554,5.46373883 L8.45731944,7.2681506 L10.3337403,7.83533736 L8.40598697,14.4031556 L6.5295661,13.8360891 L6,15.6406212 L7.87630234,16.2075674 L7.3732916,17.9216383 L7.75324668,18.0365191 L9.2929835,18.5018168 L9.81840031,16.71172 L11.1761618,17.1220433 L10.6507449,18.9122603 L12.2309076,19.389828 L12.7563244,17.5996109 L13.2011267,17.7339795 C13.4805253,17.8186958 13.7705549,17.8618494 14.0621606,17.8620927 C14.5541461,17.8620927 15.0415082,17.7380695 15.486429,17.4937521 C16.1916873,17.1065253 16.7060789,16.4639142 16.9350003,15.6840474 C17.1756583,14.8637618 17.0568705,14.0211015 16.6740702,13.3274856 C17.3690146,12.9595059 17.922765,12.3186991 18.16366,11.4980527 C18.3925815,10.7181859 18.3084105,9.89465237 17.9269143,9.17914295" id="形状" fill="#FFFFFF"></path>
            </g>
        </g>
    </g>
</svg>